<?xml version="1.0" encoding="utf-8"?>
<!-- Generator: Adobe Illustrator 22.1.0, SVG Export Plug-In . SVG Version: 6.00 Build 0)  -->
<svg version="1.1" id="Logo" xmlns="http://www.w3.org/2000/svg" xmlns:xlink="http://www.w3.org/1999/xlink" x="0px" y="0px"
	 viewBox="0 0 137 28" style="enable-background:new 0 0 137 28;" xml:space="preserve">
<style type="text/css">
	.st0{enable-background:new    ;}
	.st1{fill:#FEFEFE;}
	.st2{fill:#65E496;}
	.st3{fill:#44444F;}
</style>
<g class="st0">
	<path class="st1" d="M41.3,3.6h7.9c1.6,0,2.7,0.1,3.5,0.2c0.8,0.1,1.5,0.4,2.1,0.8c0.6,0.4,1.1,1,1.5,1.7S57,7.7,57,8.6
		c0,0.9-0.3,1.8-0.8,2.6c-0.5,0.8-1.2,1.4-2,1.7c1.2,0.4,2.1,1,2.8,1.8s1,1.8,1,3c0,0.9-0.2,1.8-0.6,2.6c-0.4,0.9-1,1.5-1.7,2
		c-0.7,0.5-1.6,0.8-2.7,0.9c-0.7,0.1-2.3,0.1-4.8,0.1h-6.8V3.6z M45.3,6.9v4.6h2.6c1.6,0,2.5,0,2.9-0.1c0.7-0.1,1.2-0.3,1.6-0.7
		c0.4-0.4,0.6-0.9,0.6-1.5c0-0.6-0.2-1.1-0.5-1.5C52.2,7.2,51.7,7,51,6.9c-0.4,0-1.5-0.1-3.4-0.1H45.3z M45.3,14.7V20H49
		c1.4,0,2.4,0,2.8-0.1c0.6-0.1,1.1-0.4,1.5-0.8c0.4-0.4,0.6-1,0.6-1.7c0-0.6-0.1-1.1-0.4-1.5c-0.3-0.4-0.7-0.7-1.3-0.9
		c-0.5-0.2-1.7-0.3-3.6-0.3H45.3z"/>
	<path class="st1" d="M61.3,3.6h4v10.7c0,1.7,0,2.8,0.1,3.3c0.2,0.8,0.6,1.5,1.2,2c0.6,0.5,1.5,0.7,2.6,0.7c1.1,0,2-0.2,2.6-0.7
		s0.9-1,1-1.7s0.2-1.8,0.2-3.4v-11h4V14c0,2.4-0.1,4.1-0.3,5c-0.2,1-0.6,1.8-1.2,2.5c-0.6,0.7-1.4,1.2-2.3,1.6
		c-1,0.4-2.2,0.6-3.8,0.6c-1.9,0-3.3-0.2-4.3-0.7c-1-0.4-1.8-1-2.3-1.7c-0.6-0.7-0.9-1.4-1.1-2.2c-0.3-1.1-0.4-2.8-0.4-5V3.6z"/>
	<path class="st1" d="M81.4,23.4V3.6h4v8.8l8.1-8.8h5.4l-7.5,7.7l7.9,12.1h-5.2l-5.5-9.3l-3.3,3.3v6H81.4z"/>
</g>
<g class="st0">
	<path class="st2" d="M101.4,23.4V3.6h14.7v3.4h-10.7v4.4h10v3.3h-10V20h11.1v3.3H101.4z"/>
	<path class="st2" d="M119.9,23.4V3.6h14.7v3.4h-10.7v4.4h10v3.3h-10V20H135v3.3H119.9z"/>
</g>
<g id="logo_icon">
	<path id="Rectangle_10_copy_3" class="st2" d="M28,28L0,0h28V28z"/>
	<path class="st3" d="M28,0L0,28V0H28z"/>
</g>
</svg>
